<svg id="visual" viewBox="0 0 2000 1000" width="2000" height="1000" xmlns="http://www.w3.org/2000/svg" xmlns:xlink="http://www.w3.org/1999/xlink" version="1.1"><g stroke-width="1" stroke-linejoin="bevel"><path d="M1086.9 539L925.1 688.7L1098.9 698.7Z" fill="#ababab" stroke="#ababab"></path><path d="M1086.9 539L869.1 498L925.1 688.7Z" fill="#474747" stroke="#474747"></path><path d="M706.3 803.3L896.1 808.3L925.1 688.7Z" fill="#ffffff" stroke="#ffffff"></path><path d="M925.1 688.7L896.1 808.3L1098.9 698.7Z" fill="#919191" stroke="#919191"></path><path d="M896.1 808.3L1107.9 842.3L1098.9 698.7Z" fill="#000000" stroke="#000000"></path><path d="M1312.7 842.3L1292.7 645.7L1098.9 698.7Z" fill="#e2e2e2" stroke="#e2e2e2"></path><path d="M1098.9 698.7L1292.7 645.7L1086.9 539Z" fill="#c6c6c6" stroke="#c6c6c6"></path><path d="M1086.9 539L918.1 364.3L869.1 498Z" fill="#c6c6c6" stroke="#c6c6c6"></path><path d="M1066.9 344.3L918.1 364.3L1086.9 539Z" fill="#1b1b1b" stroke="#1b1b1b"></path><path d="M1299.7 472L1066.9 344.3L1086.9 539Z" fill="#000000" stroke="#000000"></path><path d="M918.1 364.3L743.3 472L869.1 498Z" fill="#474747" stroke="#474747"></path><path d="M869.1 498L689.3 633.7L925.1 688.7Z" fill="#303030" stroke="#303030"></path><path d="M1292.7 645.7L1299.7 472L1086.9 539Z" fill="#303030" stroke="#303030"></path><path d="M743.3 472L689.3 633.7L869.1 498Z" fill="#000000" stroke="#000000"></path><path d="M689.3 633.7L706.3 803.3L925.1 688.7Z" fill="#777777" stroke="#777777"></path><path d="M896.1 808.3L1049.9 1000L1107.9 842.3Z" fill="#777777" stroke="#777777"></path><path d="M1107.9 842.3L1312.7 842.3L1098.9 698.7Z" fill="#c6c6c6" stroke="#c6c6c6"></path><path d="M1292.7 645.7L1413.5 527L1299.7 472Z" fill="#303030" stroke="#303030"></path><path d="M910.1 1000L1049.9 1000L896.1 808.3Z" fill="#1b1b1b" stroke="#1b1b1b"></path><path d="M1107.9 842.3L1296.7 1000L1312.7 842.3Z" fill="#ffffff" stroke="#ffffff"></path><path d="M723.3 1000L910.1 1000L896.1 808.3Z" fill="#474747" stroke="#474747"></path><path d="M1470.5 365.3L1297.7 341.3L1299.7 472Z" fill="#5e5e5e" stroke="#5e5e5e"></path><path d="M1299.7 472L1297.7 341.3L1066.9 344.3Z" fill="#000000" stroke="#000000"></path><path d="M1426.5 674.7L1413.5 527L1292.7 645.7Z" fill="#e2e2e2" stroke="#e2e2e2"></path><path d="M1312.7 842.3L1426.5 674.7L1292.7 645.7Z" fill="#919191" stroke="#919191"></path><path d="M722.3 197.7L722.3 324.3L918.1 364.3Z" fill="#ffffff" stroke="#ffffff"></path><path d="M918.1 364.3L722.3 324.3L743.3 472Z" fill="#000000" stroke="#000000"></path><path d="M743.3 472L570.5 469L689.3 633.7Z" fill="#ffffff" stroke="#ffffff"></path><path d="M1071.9 205.7L918.1 364.3L1066.9 344.3Z" fill="#1b1b1b" stroke="#1b1b1b"></path><path d="M1297.7 341.3L1071.9 205.7L1066.9 344.3Z" fill="#ababab" stroke="#ababab"></path><path d="M1312.7 842.3L1426.5 844.3L1426.5 674.7Z" fill="#e2e2e2" stroke="#e2e2e2"></path><path d="M1418.5 1000L1426.5 844.3L1312.7 842.3Z" fill="#303030" stroke="#303030"></path><path d="M1049.9 1000L1296.7 1000L1107.9 842.3Z" fill="#5e5e5e" stroke="#5e5e5e"></path><path d="M722.3 324.3L570.5 469L743.3 472Z" fill="#474747" stroke="#474747"></path><path d="M689.3 633.7L537.5 794.3L706.3 803.3Z" fill="#c6c6c6" stroke="#c6c6c6"></path><path d="M570.5 469L542.5 639.7L689.3 633.7Z" fill="#ffffff" stroke="#ffffff"></path><path d="M706.3 803.3L723.3 1000L896.1 808.3Z" fill="#e2e2e2" stroke="#e2e2e2"></path><path d="M533.5 1000L723.3 1000L706.3 803.3Z" fill="#e2e2e2" stroke="#e2e2e2"></path><path d="M1071.9 205.7L905.1 139.7L918.1 364.3Z" fill="#777777" stroke="#777777"></path><path d="M722.3 324.3L520.5 348.3L570.5 469Z" fill="#ffffff" stroke="#ffffff"></path><path d="M542.5 639.7L537.5 794.3L689.3 633.7Z" fill="#474747" stroke="#474747"></path><path d="M905.1 139.7L722.3 197.7L918.1 364.3Z" fill="#919191" stroke="#919191"></path><path d="M1624.4 473L1470.5 365.3L1413.5 527Z" fill="#e2e2e2" stroke="#e2e2e2"></path><path d="M1413.5 527L1470.5 365.3L1299.7 472Z" fill="#303030" stroke="#303030"></path><path d="M1297.7 341.3L1253.7 126.7L1071.9 205.7Z" fill="#777777" stroke="#777777"></path><path d="M1624.4 473L1413.5 527L1426.5 674.7Z" fill="#ffffff" stroke="#ffffff"></path><path d="M1296.7 1000L1418.5 1000L1312.7 842.3Z" fill="#ababab" stroke="#ababab"></path><path d="M1613.4 842.3L1635.4 703.7L1426.5 674.7Z" fill="#1b1b1b" stroke="#1b1b1b"></path><path d="M1416.5 143.7L1253.7 126.7L1297.7 341.3Z" fill="#e2e2e2" stroke="#e2e2e2"></path><path d="M1071.9 205.7L1067.9 0L905.1 139.7Z" fill="#303030" stroke="#303030"></path><path d="M572.5 191.7L520.5 348.3L722.3 324.3Z" fill="#5e5e5e" stroke="#5e5e5e"></path><path d="M570.5 469L365.6 531L542.5 639.7Z" fill="#ababab" stroke="#ababab"></path><path d="M542.5 639.7L361.6 695.7L537.5 794.3Z" fill="#1b1b1b" stroke="#1b1b1b"></path><path d="M537.5 794.3L533.5 1000L706.3 803.3Z" fill="#e2e2e2" stroke="#e2e2e2"></path><path d="M400.6 1000L533.5 1000L537.5 794.3Z" fill="#ababab" stroke="#ababab"></path><path d="M756.3 0L572.5 191.7L722.3 197.7Z" fill="#000000" stroke="#000000"></path><path d="M722.3 197.7L572.5 191.7L722.3 324.3Z" fill="#777777" stroke="#777777"></path><path d="M1613.4 842.3L1426.5 674.7L1426.5 844.3Z" fill="#777777" stroke="#777777"></path><path d="M1470.5 365.3L1416.5 143.7L1297.7 341.3Z" fill="#ababab" stroke="#ababab"></path><path d="M1624.4 310.3L1416.5 143.7L1470.5 365.3Z" fill="#000000" stroke="#000000"></path><path d="M1253.7 126.7L1067.9 0L1071.9 205.7Z" fill="#303030" stroke="#303030"></path><path d="M905.1 139.7L756.3 0L722.3 197.7Z" fill="#ababab" stroke="#ababab"></path><path d="M1254.7 0L1067.9 0L1253.7 126.7Z" fill="#ababab" stroke="#ababab"></path><path d="M1635.4 703.7L1624.4 473L1426.5 674.7Z" fill="#5e5e5e" stroke="#5e5e5e"></path><path d="M1067.9 0L947.1 0L905.1 139.7Z" fill="#ffffff" stroke="#ffffff"></path><path d="M1418.5 1000L1613.4 842.3L1426.5 844.3Z" fill="#1b1b1b" stroke="#1b1b1b"></path><path d="M350.6 321.3L365.6 531L520.5 348.3Z" fill="#e2e2e2" stroke="#e2e2e2"></path><path d="M520.5 348.3L365.6 531L570.5 469Z" fill="#ababab" stroke="#ababab"></path><path d="M365.6 531L361.6 695.7L542.5 639.7Z" fill="#777777" stroke="#777777"></path><path d="M1416.5 143.7L1254.7 0L1253.7 126.7Z" fill="#ffffff" stroke="#ffffff"></path><path d="M947.1 0L756.3 0L905.1 139.7Z" fill="#c6c6c6" stroke="#c6c6c6"></path><path d="M1790.2 325.3L1624.4 310.3L1624.4 473Z" fill="#ffffff" stroke="#ffffff"></path><path d="M1624.4 473L1624.4 310.3L1470.5 365.3Z" fill="#777777" stroke="#777777"></path><path d="M1416.5 143.7L1444.5 0L1254.7 0Z" fill="#ababab" stroke="#ababab"></path><path d="M215.8 703.7L335.6 802.3L361.6 695.7Z" fill="#ffffff" stroke="#ffffff"></path><path d="M361.6 695.7L335.6 802.3L537.5 794.3Z" fill="#303030" stroke="#303030"></path><path d="M335.6 802.3L400.6 1000L537.5 794.3Z" fill="#1b1b1b" stroke="#1b1b1b"></path><path d="M1819.2 626.7L1789.2 514L1635.4 703.7Z" fill="#5e5e5e" stroke="#5e5e5e"></path><path d="M1418.5 1000L1634.4 1000L1613.4 842.3Z" fill="#1b1b1b" stroke="#1b1b1b"></path><path d="M396.6 167.7L350.6 321.3L520.5 348.3Z" fill="#777777" stroke="#777777"></path><path d="M365.6 531L215.8 703.7L361.6 695.7Z" fill="#303030" stroke="#303030"></path><path d="M396.6 167.7L520.5 348.3L572.5 191.7Z" fill="#1b1b1b" stroke="#1b1b1b"></path><path d="M1666.4 128.7L1444.5 0L1416.5 143.7Z" fill="#777777" stroke="#777777"></path><path d="M514.5 0L396.6 167.7L572.5 191.7Z" fill="#000000" stroke="#000000"></path><path d="M1635.4 703.7L1789.2 514L1624.4 473Z" fill="#5e5e5e" stroke="#5e5e5e"></path><path d="M1624.4 310.3L1666.4 128.7L1416.5 143.7Z" fill="#ffffff" stroke="#ffffff"></path><path d="M1819.2 626.7L1635.4 703.7L1854.2 807.3Z" fill="#919191" stroke="#919191"></path><path d="M756.3 0L514.5 0L572.5 191.7Z" fill="#303030" stroke="#303030"></path><path d="M1854.2 807.3L1635.4 703.7L1613.4 842.3Z" fill="#1b1b1b" stroke="#1b1b1b"></path><path d="M197.8 493L215.8 703.7L365.6 531Z" fill="#000000" stroke="#000000"></path><path d="M335.6 802.3L214.8 1000L400.6 1000Z" fill="#c6c6c6" stroke="#c6c6c6"></path><path d="M197.8 493L365.6 531L350.6 321.3Z" fill="#ababab" stroke="#ababab"></path><path d="M1790.2 325.3L1666.4 128.7L1624.4 310.3Z" fill="#5e5e5e" stroke="#5e5e5e"></path><path d="M160.8 341.3L197.8 493L350.6 321.3Z" fill="#474747" stroke="#474747"></path><path d="M2000 373.3L1790.2 325.3L1789.2 514Z" fill="#919191" stroke="#919191"></path><path d="M1789.2 514L1790.2 325.3L1624.4 473Z" fill="#1b1b1b" stroke="#1b1b1b"></path><path d="M0 804.3L199.8 858.3L215.8 703.7Z" fill="#5e5e5e" stroke="#5e5e5e"></path><path d="M215.8 703.7L199.8 858.3L335.6 802.3Z" fill="#e2e2e2" stroke="#e2e2e2"></path><path d="M1825.2 1000L1854.2 807.3L1613.4 842.3Z" fill="#c6c6c6" stroke="#c6c6c6"></path><path d="M2000 186.7L1839.2 140.7L1790.2 325.3Z" fill="#ffffff" stroke="#ffffff"></path><path d="M1837.2 0L1633.4 0L1666.4 128.7Z" fill="#ffffff" stroke="#ffffff"></path><path d="M1666.4 128.7L1633.4 0L1444.5 0Z" fill="#e2e2e2" stroke="#e2e2e2"></path><path d="M514.5 0L392.6 0L396.6 167.7Z" fill="#5e5e5e" stroke="#5e5e5e"></path><path d="M160.8 136.7L160.8 341.3L350.6 321.3Z" fill="#c6c6c6" stroke="#c6c6c6"></path><path d="M199.8 858.3L214.8 1000L335.6 802.3Z" fill="#5e5e5e" stroke="#5e5e5e"></path><path d="M1634.4 1000L1825.2 1000L1613.4 842.3Z" fill="#c6c6c6" stroke="#c6c6c6"></path><path d="M160.8 136.7L350.6 321.3L396.6 167.7Z" fill="#919191" stroke="#919191"></path><path d="M197.8 493L0 666.7L215.8 703.7Z" fill="#777777" stroke="#777777"></path><path d="M2000 490L1789.2 514L1819.2 626.7Z" fill="#e2e2e2" stroke="#e2e2e2"></path><path d="M1790.2 325.3L1839.2 140.7L1666.4 128.7Z" fill="#5e5e5e" stroke="#5e5e5e"></path><path d="M2000 824.3L2000 653.7L1854.2 807.3Z" fill="#777777" stroke="#777777"></path><path d="M1854.2 807.3L2000 653.7L1819.2 626.7Z" fill="#474747" stroke="#474747"></path><path d="M212.8 0L160.8 136.7L396.6 167.7Z" fill="#919191" stroke="#919191"></path><path d="M2000 653.7L2000 490L1819.2 626.7Z" fill="#777777" stroke="#777777"></path><path d="M2000 1000L2000 824.3L1854.2 807.3Z" fill="#c6c6c6" stroke="#c6c6c6"></path><path d="M2000 490L2000 373.3L1789.2 514Z" fill="#000000" stroke="#000000"></path><path d="M0 505L0 666.7L197.8 493Z" fill="#474747" stroke="#474747"></path><path d="M199.8 858.3L0 1000L214.8 1000Z" fill="#777777" stroke="#777777"></path><path d="M0 505L197.8 493L160.8 341.3Z" fill="#1b1b1b" stroke="#1b1b1b"></path><path d="M392.6 0L212.8 0L396.6 167.7Z" fill="#c6c6c6" stroke="#c6c6c6"></path><path d="M0 360.3L160.8 341.3L0 152.7Z" fill="#919191" stroke="#919191"></path><path d="M0 360.3L0 505L160.8 341.3Z" fill="#c6c6c6" stroke="#c6c6c6"></path><path d="M0 666.7L0 804.3L215.8 703.7Z" fill="#5e5e5e" stroke="#5e5e5e"></path><path d="M1839.2 140.7L1837.2 0L1666.4 128.7Z" fill="#474747" stroke="#474747"></path><path d="M2000 0L1837.2 0L1839.2 140.7Z" fill="#c6c6c6" stroke="#c6c6c6"></path><path d="M0 152.7L160.8 341.3L160.8 136.7Z" fill="#5e5e5e" stroke="#5e5e5e"></path><path d="M1825.2 1000L2000 1000L1854.2 807.3Z" fill="#777777" stroke="#777777"></path><path d="M2000 373.3L2000 186.7L1790.2 325.3Z" fill="#474747" stroke="#474747"></path><path d="M0 804.3L0 1000L199.8 858.3Z" fill="#919191" stroke="#919191"></path><path d="M0 0L0 152.7L160.8 136.7Z" fill="#5e5e5e" stroke="#5e5e5e"></path><path d="M2000 186.7L2000 0L1839.2 140.7Z" fill="#474747" stroke="#474747"></path><path d="M212.8 0L0 0L160.8 136.7Z" fill="#1b1b1b" stroke="#1b1b1b"></path></g></svg>