<svg id="visual" viewBox="0 0 900 600" width="900" height="600" xmlns="http://www.w3.org/2000/svg" xmlns:xlink="http://www.w3.org/1999/xlink" version="1.1"><path d="M854 600L863 450L854 300L863 150L854 0L900 0L900 150L900 300L900 450L900 600Z" fill="#111111"></path><path d="M809 600L818 450L809 300L818 150L809 0L855 0L864 150L855 300L864 450L855 600Z" fill="#101010"></path><path d="M755 600L764 450L755 300L764 150L755 0L810 0L819 150L810 300L819 450L810 600Z" fill="#0e0e0e"></path><path d="M593 600L584 450L602 300L593 150L584 0L756 0L765 150L756 300L765 450L756 600Z" fill="#0d0d0d"></path><path d="M521 600L503 450L521 300L521 150L503 0L585 0L594 150L603 300L585 450L594 600Z" fill="#0c0c0c"></path><path d="M449 600L440 450L458 300L449 150L440 0L504 0L522 150L522 300L504 450L522 600Z" fill="#0a0a0a"></path><path d="M413 600L404 450L422 300L413 150L404 0L441 0L450 150L459 300L441 450L450 600Z" fill="#080808"></path><path d="M305 600L287 450L314 300L305 150L296 0L405 0L414 150L423 300L405 450L414 600Z" fill="#070707"></path><path d="M251 600L242 450L260 300L251 150L242 0L297 0L306 150L315 300L288 450L306 600Z" fill="#050505"></path><path d="M71 600L71 450L71 300L71 150L71 0L243 0L252 150L261 300L243 450L252 600Z" fill="#030303"></path><path d="M35 600L35 450L35 300L35 150L35 0L72 0L72 150L72 300L72 450L72 600Z" fill="#020202"></path><path d="M0 600L0 450L0 300L0 150L0 0L36 0L36 150L36 300L36 450L36 600Z" fill="#000000"></path></svg>